<svg id="globe" xmlns="http://www.w3.org/2000/svg" viewBox="0 0 84.95 84.95" width="85" height="85">
  <defs>
    <style>
      .cls-1 {
        fill: #fff;
      }
    </style>
  </defs>
  <path id="Path_343" data-name="Path 343" class="cls-1" d="M64.61,40.082c0-5.982-1.2-10.768-2.393-15.554a53.033,53.033,0,0,0,10.17-4.786,39.681,39.681,0,0,1,7.179,20.34ZM52.645,6.581C58.627,8.375,64.61,11.367,68.8,16.152c-2.393,1.2-5.384,2.393-8.375,3.589A63.57,63.57,0,0,0,52.645,6.581Zm-28.117,33.5c.6-5.384,1.2-10.17,2.991-14.358a45.811,45.811,0,0,0,14.956,2.393,55.921,55.921,0,0,0,14.956-2.393,51.42,51.42,0,0,1,2.393,14.358Zm-8.375-23.93C20.34,11.367,25.724,8.375,32.3,6.581a63.571,63.571,0,0,0-7.777,13.161C21.537,18.545,19.144,17.349,16.152,16.152Zm3.589,23.93H5.384c0-7.777,2.991-14.358,7.179-20.34,3.589,1.795,6.581,3.589,10.17,4.786C20.938,29.314,20.34,34.1,19.742,40.082Zm22.733-35.3c.6,0,1.795.6,2.393.6A58.8,58.8,0,0,1,55.636,20.938c-7.777,2.393-16.751,2.393-26.323,0C32.9,13.161,37.689,7.179,40.082,5.384,40.68,5.384,41.279,4.786,42.475,4.786Zm0,74.78a38.62,38.62,0,0,1-22.733-7.777l-3.589,4.786V58.627H34.1l-4.786,4.786c5.384,6.581,14.358,10.768,23.93,10.768A37.565,37.565,0,0,0,64.61,72.387C58.627,77.173,50.85,79.566,42.475,79.566ZM42.475,0A42.639,42.639,0,0,0,0,42.475,42.126,42.126,0,0,0,6.581,65.208V58.627a7.588,7.588,0,0,1,.6-3.589,27.945,27.945,0,0,1-1.795-10.17H19.742a13.172,13.172,0,0,1,.6,4.786h5.384a13.172,13.172,0,0,1-.6-4.786h34.7a59.362,59.362,0,0,1-5.982,20.34c1.795-.6,4.188-.6,5.982-1.2,2.991-6.581,4.786-13.161,4.786-19.144H79.566A26.653,26.653,0,0,1,53.243,69.4a25.937,25.937,0,0,1-16.751-5.982l1.795-1.795a4.653,4.653,0,0,0,1.2-4.786A4.5,4.5,0,0,0,35.3,53.842H16.152c-1.2,0-2.991,0-3.589,1.2a5.171,5.171,0,0,0-1.795,3.589V77.771a4.5,4.5,0,0,0,2.991,4.188,2.2,2.2,0,0,0,1.795.6c1.2,0,1.795-.6,2.991-1.2l2.393-2.393A42.992,42.992,0,0,0,42.475,84.95a42.475,42.475,0,0,0,0-84.95Z"/>
</svg>
