<svg id="hands" xmlns="http://www.w3.org/2000/svg" viewBox="0 0 91.667 59.816" width="92" height="60">
  <defs>
    <style>
      .cls-1 {
        fill: #fff;
      }
    </style>
  </defs>
  <path id="Path_350" data-name="Path 350" class="cls-1" d="M5.826,82.719a3,3,0,0,1-3.107,2.719,2.719,2.719,0,1,1,0-5.438A3,3,0,0,1,5.826,82.719Z" transform="translate(0 -48.927)"/>
  <path id="Path_351" data-name="Path 351" class="cls-1" d="M120.181,112.812c-1.165.777-2.331.777-3.107-.388l-1.554-3.107-4.661-7.38a2.136,2.136,0,0,0-2.719-1.165,2.1,2.1,0,0,0-.777,3.107l4.273,7.768h0l1.165,1.942.777,1.554h0l.777.777a6.237,6.237,0,0,0,4.273,1.942,9.2,9.2,0,0,0,3.884-1.165h0l-.777-1.165Z" transform="translate(-65.414 -61.54)"/>
  <path id="Path_352" data-name="Path 352" class="cls-1" d="M96.87,125.52s-1.165.388-2.331-1.165h0l-3.884-6.215a1.719,1.719,0,0,0-2.719-.777c-1.165.388-1.554,1.942-1.165,3.107l3.5,5.826.388.388h0v.388c1.942,2.33,3.884,3.107,5.438,3.107A7.317,7.317,0,0,0,99.2,129.4l-1.942-3.5Z" transform="translate(-52.978 -71.53)"/>
  <path id="Path_353" data-name="Path 353" class="cls-1" d="M224.719,89A3,3,0,0,0,222,92.107a2.719,2.719,0,1,0,5.438,0A3,3,0,0,0,224.719,89Z" transform="translate(-135.771 -54.431)"/>
  <path id="Path_354" data-name="Path 354" class="cls-1" d="M33.4,55.155a3.719,3.719,0,0,1-3.5-1.942l-9.71-16.7H15.148V9.71H29.131l3.5-4.661H15.148V0H0V4.273H10.876V42.338H0V46.61H15.148V40.784h2.331l8.545,14.76a8.861,8.861,0,0,0,7.38,4.273c.777,0,1.554-.388,2.331-.388Z"/>
  <path id="Path_355" data-name="Path 355" class="cls-1" d="M108.056,45.007,94.462,18.983v-.388c-1.165,0-8.934-.388-8.934-.777H84.363L75.429,27.14a7.232,7.232,0,0,1-4.273,1.554c-1.165-.388-1.942-1.554-2.719-2.331l10.1-13.206c2.719-3.5,5.438-3.884,5.438-3.884h16.314l14.76,6.6V45.007Zm11.264-33.792H130.2V6.554H115.048v4.661L101.453,5H83.975c-.388,0-4.661.388-8.934,5.438L63,25.975l.777,1.165c0,.777,2.331,4.661,6.6,5.826h1.554a10.331,10.331,0,0,0,6.215-2.331l8.157-8.157c1.165,0,3.5.388,5.049.388L105.338,49.28h0A8.424,8.424,0,0,1,103.007,52l-.388.388h0c-.388,0-.777-.388-1.554-.777l-3.5-5.826-5.438-8.157a1.719,1.719,0,0,0-2.719-.777,2.1,2.1,0,0,0-.777,3.107l4.661,7.38.388.777h0l2.331,3.5,1.554,2.719h.388a5.178,5.178,0,0,0,2.331,1.942,4.223,4.223,0,0,0,1.942.388h.777a5.521,5.521,0,0,0,2.331-.777c2.331-1.554,3.884-4.661,4.661-6.6h5.049v3.884H130.2V48.891H119.321Z" transform="translate(-38.53 -3.058)"/>
</svg>
