<svg xmlns="http://www.w3.org/2000/svg" viewBox="0 0 78.586 83.333" width="79" height="84">
  <defs>
    <style>
      .cls-1 {
        fill: #fff;
      }
    </style>
  </defs>
  <g id="_2499169191952" transform="translate(0)">
    <path id="Path_47" data-name="Path 47" class="cls-1" d="M6347,8022.975a16.353,16.353,0,0,1-2.025,1.8,24.43,24.43,0,0,0-3.6,3.375v-6.6l3-3a2.037,2.037,0,0,0,0-2.925,2.014,2.014,0,0,0-2.85.075l-2.25,2.25-2.175-2.25a2.108,2.108,0,0,0-2.925-.075,2.038,2.038,0,0,0,0,2.925l3.15,3.15v6.9a25.212,25.212,0,0,0-3.75-3.75,15.442,15.442,0,0,1-1.95-1.8,8.633,8.633,0,0,1-1.575-5.325,9.235,9.235,0,1,1,18.45,0C6348.5,8020.5,6347.9,8021.85,6347,8022.975ZM6339.275,8004A13.5,13.5,0,0,0,6326,8017.725a12.7,12.7,0,0,0,2.475,7.95c2.4,2.7,5.7,4.05,7.35,8.7,0,0,.3,1.8,3,1.8h.9c2.7,0,3-1.8,3-1.8h0c1.2-4.65,4.95-6,7.35-8.7a11.868,11.868,0,0,0,2.475-7.95A13.5,13.5,0,0,0,6339.275,8004Z" transform="translate(-6295.825 -7983.825)"/>
    <path id="Path_48" data-name="Path 48" class="cls-1" d="M6478.025,7876.525a2.016,2.016,0,0,0,2.025-2.025v-2.475a2.025,2.025,0,0,0-4.05,0v2.475A2.017,2.017,0,0,0,6478.025,7876.525Z" transform="translate(-6434.575 -7859.875)"/>
    <path id="Path_49" data-name="Path 49" class="cls-1" d="M6265.863,7964.244l-1.875-1.875a2.038,2.038,0,0,0-2.925,0,2.086,2.086,0,0,0,0,2.85l1.875,1.95a2.383,2.383,0,0,0,1.5.6,2.063,2.063,0,0,0,1.425-3.525Z" transform="translate(-6235.238 -7944.744)"/>
    <path id="Path_50" data-name="Path 50" class="cls-1" d="M6671.863,7964.369a2.039,2.039,0,0,0-2.925,0l-1.875,1.875a2.184,2.184,0,0,0,0,2.925,2.384,2.384,0,0,0,1.5.6,1.849,1.849,0,0,0,1.425-.675l1.875-1.875A1.95,1.95,0,0,0,6671.863,7964.369Z" transform="translate(-6610.789 -7946.594)"/>
    <path id="Path_51" data-name="Path 51" class="cls-1" d="M5989.435,7741.92a44.375,44.375,0,0,0-23.925-6.92,44.9,44.9,0,0,0-23.336,6.625c-.515.221-12.514,6.772-8.76,24.809a18.012,18.012,0,0,1-.589,5.742l-8.392,9.865a3.423,3.423,0,0,0-.442.663,5.151,5.151,0,0,0,.368,4.343,4.8,4.8,0,0,0,3.755,2.062l3.975.81a19.7,19.7,0,0,1,1.619,5.594,28.091,28.091,0,0,1-.441,6.552c-.883,2.5-1.4,7.067,1.914,9.5a1.61,1.61,0,0,0,.589.368h0a12.779,12.779,0,0,0,6.037,1.1,58.556,58.556,0,0,0,11.411-1.4,36.33,36.33,0,0,1,1.325,6.7h4.638c-.81-7.729-2.282-10.232-3.092-11.042a2.475,2.475,0,0,0-2.135-.589,61.013,61.013,0,0,1-12.146,1.693c-2.724,0-3.607-.442-3.9-.662h-.074c-1.031-1.031-.368-3.607-.147-4.27.074-.074.074-.221.147-.368,0-.147.442-2.5.589-5.153l4.785.074h.073a2.319,2.319,0,0,0,0-4.638l-5.153-.073a32.394,32.394,0,0,0-2.355-6.479,2.484,2.484,0,0,0-1.62-1.251l-5.227-1.03-.294-.074h-.147l8.024-9.422.221-.295c1.4-2.282,1.4-7.141,1.4-8.613a.938.938,0,0,1-.073-.441c-3.166-14.65,5.889-19.729,6.4-20.024a39.991,39.991,0,0,1,42.256,0c19.287,14.208,7.508,35.851,6.551,37.544-4.711,6.772-7.067,17.079-7.141,17.447a.549.549,0,0,1-.074.368,79.508,79.508,0,0,0,1.252,17.3h4.711a78.356,78.356,0,0,1-1.251-16.785c.294-1.325,2.429-10.159,6.4-15.754l.073-.147C5997.385,7785.354,6012.55,7758.925,5989.435,7741.92Z" transform="translate(-5923.671 -7735)"/>
  </g>
</svg>
