<svg xmlns="http://www.w3.org/2000/svg" viewBox="0 0 78.899 85.65" width="79" height="86">
  <defs>
    <style>
      .cls-1 {
        fill: #fff;
      }
    </style>
  </defs>
  <g id="_2497802373456" transform="translate(0)">
    <path id="Path_41" data-name="Path 41" class="cls-1" d="M13526.874,8212H13519v4.875h7.874a4.9,4.9,0,0,1,4.951,4.95v13.649a4.946,4.946,0,0,1-4.951,4.95h-2.174V8261.5h4.8v-16.65a9.807,9.807,0,0,0,7.2-9.375v-13.649A9.86,9.86,0,0,0,13526.874,8212Z" transform="translate(-13457.801 -8175.85)"/>
    <path id="Path_42" data-name="Path 42" class="cls-1" d="M12712.75,8216.875h7.8V8212h-7.8a9.8,9.8,0,0,0-9.75,9.825v13.649a9.741,9.741,0,0,0,7.126,9.375v16.65h4.8v-21.075h-2.176a5,5,0,0,1-4.95-4.95v-13.649A4.946,4.946,0,0,1,12712.75,8216.875Z" transform="translate(-12703 -8175.85)"/>
    <path id="Path_43" data-name="Path 43" class="cls-1" d="M13035.9,8098.225a10.254,10.254,0,0,0-.675-3,9.914,9.914,0,0,0-4.125-4.8,9.308,9.308,0,0,0-4.95-1.425h-14.4a9.307,9.307,0,0,0-4.949,1.425,9.914,9.914,0,0,0-4.125,4.8,10.192,10.192,0,0,0-.675,3V8117.5a9.6,9.6,0,0,0,.675,3.6,9.7,9.7,0,0,0,3.825,4.65l.3.15a8.16,8.16,0,0,0,2.325,1.05v20.775H13014v-25.2h-2.251a4.646,4.646,0,0,1-3.074-1.2,4.87,4.87,0,0,1-1.875-3.825v-18.75a4.978,4.978,0,0,1,4.949-4.875h14.4a4.945,4.945,0,0,1,4.95,4.95h0V8117.5a4.941,4.941,0,0,1-1.726,3.75,5.111,5.111,0,0,1-3.225,1.275h-2.249v25.2h4.874V8126.95a8.172,8.172,0,0,0,2.325-1.05l.375-.15a10.38,10.38,0,0,0,3.75-4.65,9.6,9.6,0,0,0,.675-3.6v-19.275Z" transform="translate(-12979.575 -8062.074)"/>
    <path id="Path_44" data-name="Path 44" class="cls-1" d="M13087.4,7734.875a6.525,6.525,0,1,1-6.525,6.525A6.53,6.53,0,0,1,13087.4,7734.875Zm0,17.925a11.4,11.4,0,1,0-11.4-11.4A11.4,11.4,0,0,0,13087.4,7752.8Z" transform="translate(-13048.023 -7730)"/>
    <path id="Path_45" data-name="Path 45" class="cls-1" d="M13437.4,7857.875a6.525,6.525,0,1,1-6.524,6.525A6.595,6.595,0,0,1,13437.4,7857.875Zm0,17.925a11.4,11.4,0,1,0-11.4-11.4A11.395,11.395,0,0,0,13437.4,7875.8Z" transform="translate(-13371.774 -7843.775)"/>
    <path id="Path_46" data-name="Path 46" class="cls-1" d="M12738.4,7857.875a6.525,6.525,0,1,1-6.524,6.525A6.6,6.6,0,0,1,12738.4,7857.875Zm0,17.925a11.4,11.4,0,1,0-11.4-11.4A11.4,11.4,0,0,0,12738.4,7875.8Z" transform="translate(-12725.2 -7843.775)"/>
  </g>
</svg>
