<?xml version="1.0" encoding="UTF-8"?>
<!DOCTYPE svg PUBLIC "-//W3C//DTD SVG 1.1//EN" "http://www.w3.org/Graphics/SVG/1.1/DTD/svg11.dtd">
<!-- Creator: CorelDRAW X8 -->
<svg xmlns="http://www.w3.org/2000/svg" xml:space="preserve" width="8.2799mm" height="8.279mm" version="1.1" style="shape-rendering:geometricPrecision; text-rendering:geometricPrecision; image-rendering:optimizeQuality; fill-rule:evenodd; clip-rule:evenodd"
viewBox="0 0 32 32"
 xmlns:xlink="http://www.w3.org/1999/xlink">
 <defs>
  <style type="text/css">
   <![CDATA[
    .fil0 {fill:#FEFEFE;fill-rule:nonzero}
   ]]>
  </style>
 </defs>
 <g id="Слой_x0020_1">
  <metadata id="CorelCorpID_0Corel-Layer"/>
  <g id="_1897973350192">
   <path class="fil0" d="M17 27l0 -3c4,0 7,-3 7,-7l3 0c0,5 -5,10 -10,10zm-12 -10l3 0c0,4 3,7 7,7l0 3c-5,0 -10,-5 -10,-10zm10 -12l0 3c-4,0 -7,3 -7,7l-3 0c0,-5 5,-10 10,-10zm1 17c-3,0 -6,-2 -6,-6 0,-3 3,-6 6,-6 4,0 6,3 6,6 0,4 -2,6 -6,6zm11 -7l-3 0c0,-4 -3,-7 -7,-7l0 -3c5,0 10,5 10,10zm4 0l-2 0c-1,-6 -6,-11 -12,-12l0 -2c0,-1 -1,-1 -1,-1 0,0 -1,0 -1,1l0 2c-6,1 -11,6 -12,12l-2 0c-1,0 -1,1 -1,1 0,0 0,1 1,1l2 0c1,6 6,11 12,12l0 2c0,1 1,1 1,1 0,0 1,0 1,-1l0 -2c6,-1 11,-6 12,-12l2 0c1,0 1,-1 1,-1 0,0 0,-1 -1,-1z"/>
   <path class="fil0" d="M16 18c-1,0 -2,-1 -2,-2 0,-1 1,-2 2,-2 1,0 2,1 2,2 0,1 -1,2 -2,2zm0 -6c-2,0 -4,2 -4,4 0,2 2,4 4,4 2,0 4,-2 4,-4 0,-2 -2,-4 -4,-4z"/>
  </g>
 </g>
</svg>
