<?xml version="1.0" encoding="UTF-8"?>
<!DOCTYPE svg PUBLIC "-//W3C//DTD SVG 1.1//EN" "http://www.w3.org/Graphics/SVG/1.1/DTD/svg11.dtd">
<!-- Creator: CorelDRAW X8 -->
<svg xmlns="http://www.w3.org/2000/svg" xml:space="preserve" width="11.5883mm" height="8.279mm" version="1.1" style="shape-rendering:geometricPrecision; text-rendering:geometricPrecision; image-rendering:optimizeQuality; fill-rule:evenodd; clip-rule:evenodd"
viewBox="0 0 61 44"
 xmlns:xlink="http://www.w3.org/1999/xlink">
 <defs>
  <style type="text/css">
   <![CDATA[
    .fil0 {fill:#FEFEFE;fill-rule:nonzero}
   ]]>
  </style>
 </defs>
 <g id="Слой_x0020_1">
  <metadata id="CorelCorpID_0Corel-Layer"/>
  <g id="_2381165685088">
   <path class="fil0" d="M36 44l-20 0c0,0 -1,-1 -1,-2 0,-1 1,-1 1,-1l20 0c1,0 2,0 2,1 0,1 -1,2 -2,2z"/>
   <path class="fil0" d="M11 30c-1,0 -1,0 -1,0 -1,-1 -1,-1 -1,-2l7 -10c0,-1 0,-1 1,-1 0,0 1,0 1,1l4 5 4 -5c1,0 2,0 2,0l4 3 8 -13c0,-1 1,-1 2,0 0,0 1,1 0,2l-8 14c-1,1 -1,1 -1,1 -1,0 -1,0 -2,0l-4 -4 -4 5c-1,0 -1,1 -2,1 0,0 0,-1 -1,-1l-3 -5 -5 8c0,1 -1,1 -1,1z"/>
   <path class="fil0" d="M40 34l-34 0c-2,0 -3,-1 -3,-3l0 -25c0,-2 1,-3 3,-3l41 0c2,0 3,1 3,3l0 9c1,0 2,0 3,1l0 -10c0,-3 -3,-6 -6,-6l-41 0c-3,0 -6,3 -6,6l0 25c0,4 3,6 6,6l37 0c-1,0 -2,-2 -3,-3z"/>
   <path class="fil0" d="M43 27c0,-4 2,-6 6,-6 3,0 6,2 6,6 0,3 -3,6 -6,6 -4,0 -6,-3 -6,-6zm18 10l-5 -5c1,-1 2,-3 2,-5 0,-5 -4,-9 -9,-9 -5,0 -9,4 -9,9 0,5 4,9 9,9 2,0 4,-1 5,-2l5 5c0,0 0,0 1,0 0,0 0,0 1,0 0,-1 0,-2 0,-2z"/>
  </g>
 </g>
</svg>
